<svg width="1376" height="546" viewBox="0 0 1376 546" fill="none" xmlns="http://www.w3.org/2000/svg">
<path d="M491.428 149.159H490.524C479.594 167.493 461.365 176.077 440.169 176.077C416.244 176.077 396.412 167.019 382.515 152.104C367.935 136.496 360.176 114.555 360.176 88.7546C360.176 61.6168 369.299 37.8478 385.925 22.0188C399.601 8.67846 418.29 0.755493 442.437 0.755493C483.908 0.755493 508.054 22.696 514.21 54.3709H482.305C477.752 38.762 465.44 26.9961 442.88 26.9961C408.468 26.9961 392.286 53.9139 392.286 88.7546C392.286 123.595 412.339 149.836 442.88 149.836C471.357 149.836 486.397 130.604 486.636 109.121V107.089H445.625V82.66H516.955V172.25H495.759L491.428 149.176V149.159Z" fill="black" style="fill:black;fill:black;fill-opacity:1;"/>
<path d="M528.192 88.5176C528.192 38.0679 560.318 0.738525 611.595 0.738525C662.871 0.738525 694.997 38.0679 694.997 88.5176C694.997 138.967 662.871 176.06 611.595 176.06C560.318 176.06 528.192 138.73 528.192 88.5176ZM662.632 88.5176C662.632 53.4567 645.307 26.539 611.816 26.539C578.326 26.539 560.318 53.4567 560.318 88.5176C560.318 123.578 578.087 149.599 611.816 149.599C645.546 149.599 662.632 123.358 662.632 88.5176Z" fill="black" style="fill:black;fill:black;fill-opacity:1;"/>
<path d="M702.399 88.5176C702.399 38.0679 734.525 0.738525 785.801 0.738525C837.078 0.738525 869.204 38.0679 869.204 88.5176C869.204 138.967 837.078 176.06 785.801 176.06C734.525 176.06 702.399 138.73 702.399 88.5176ZM836.839 88.5176C836.839 53.4567 819.514 26.539 786.023 26.539C752.532 26.539 734.525 53.4567 734.525 88.5176C734.525 123.578 752.294 149.599 786.023 149.599C819.753 149.599 836.839 123.358 836.839 88.5176Z" fill="black" style="fill:black;fill:black;fill-opacity:1;"/>
<path d="M884.211 3.91929H950.971C999.962 3.91929 1028 37.8458 1028 88.9727C1028 140.1 1000.42 172.215 949.163 172.215H884.228V3.90234L884.211 3.91929ZM947.1 145.534C980.59 145.534 995.631 124.27 995.631 88.9727C995.631 53.6748 981.273 30.6001 948.003 30.6001H915.877V145.517H947.1V145.534Z" fill="black" style="fill:black;fill:black;fill-opacity:1;"/>
<path d="M62.0682 195.257H93.0352C93.8537 195.257 94.604 195.765 94.8768 196.544L155.191 360.946C155.668 362.215 154.713 363.57 153.349 363.57H123.849C122.996 363.57 122.246 363.028 121.99 362.232L109.44 324.869C109.167 324.073 108.416 323.532 107.564 323.532H46.1414C45.2887 323.532 44.5554 324.073 44.2826 324.852L31.5104 362.232C31.2376 363.028 30.4873 363.553 29.6517 363.553H1.97583C0.611644 363.553 -0.343332 362.198 0.117081 360.929L60.2095 196.527C60.4824 195.748 61.2326 195.241 62.0682 195.241M55.2472 300.44H98.526C99.8731 300.44 100.811 299.136 100.385 297.867L88.2605 261.519C81.6442 241.61 77.5517 221.024 77.5517 221.024H77.0912C77.0912 221.024 71.3958 245.453 65.922 261.519L53.3715 297.85C52.9282 299.119 53.883 300.44 55.2302 300.44" fill="black" style="fill:black;fill:black;fill-opacity:1;"/>
<path d="M165.918 195.257H282.3C283.391 195.257 284.261 196.138 284.261 197.204V220.211C284.261 221.295 283.374 222.158 282.3 222.158H197.362C196.271 222.158 195.401 223.038 195.401 224.105V263.398C195.401 264.482 196.288 265.345 197.362 265.345H267.481C268.573 265.345 269.442 266.225 269.442 267.309V289.419C269.442 290.502 268.555 291.366 267.481 291.366H197.362C196.271 291.366 195.401 292.246 195.401 293.312V361.572C195.401 362.655 194.514 363.519 193.44 363.519H165.935C164.843 363.519 163.974 362.638 163.974 361.572V197.17C163.974 196.087 164.86 195.223 165.935 195.223" fill="black" style="fill:black;fill:black;fill-opacity:1;"/>
<path d="M291.762 195.258H425.452C426.544 195.258 427.413 196.138 427.413 197.204V220.212C427.413 221.295 426.527 222.158 425.452 222.158H376.291C375.199 222.158 374.33 223.039 374.33 224.105V361.589C374.33 362.673 373.443 363.536 372.369 363.536H344.624C343.533 363.536 342.663 362.656 342.663 361.589V224.105C342.663 223.022 341.777 222.158 340.702 222.158H291.779C290.688 222.158 289.818 221.278 289.818 220.212V197.204C289.818 196.121 290.705 195.258 291.779 195.258" fill="black" style="fill:black;fill:black;fill-opacity:1;"/>
<path d="M438.533 195.257H558.564C559.656 195.257 560.525 196.138 560.525 197.204V219.991C560.525 221.075 559.638 221.938 558.564 221.938H469.977C468.886 221.938 468.016 222.818 468.016 223.885V261.604C468.016 262.687 468.903 263.567 469.977 263.567H547.838C548.93 263.567 549.799 264.448 549.799 265.514V286.71C549.799 287.793 548.912 288.674 547.838 288.674H469.977C468.886 288.674 468.016 289.554 468.016 290.621V334.214C468.016 335.297 468.903 336.161 469.977 336.161H560.61C561.702 336.161 562.588 337.041 562.588 338.108V361.572C562.588 362.655 561.702 363.519 560.61 363.519H438.533C437.442 363.519 436.572 362.638 436.572 361.572V197.17C436.572 196.087 437.459 195.223 438.533 195.223" fill="black" style="fill:black;fill:black;fill-opacity:1;"/>
<path d="M576.384 197.204C576.384 196.121 577.27 195.241 578.345 195.241H656.359C688.042 195.241 710.824 213.118 710.824 242.524C710.824 262.653 701.701 277.145 679.601 284.154V284.831C697.609 290.265 704.208 300.44 706.032 321.246C708.761 345.912 709 359.71 713.552 361.961V363.553H682.347C681.801 363.553 681.29 363.35 680.914 362.96C677.316 359.236 677.214 346.369 675.492 325.106C673.667 305.197 664.322 296.597 644.047 296.597H609.789C608.698 296.597 607.828 297.477 607.828 298.544V361.606C607.828 362.689 606.941 363.553 605.867 363.553H578.362C577.27 363.553 576.401 362.672 576.401 361.606V197.204H576.384ZM607.828 270.661C607.828 271.745 608.715 272.608 609.789 272.608H648.839C668.671 272.608 679.141 262.653 679.141 247.045C679.141 230.301 670.257 220.804 649.982 220.804H609.789C608.698 220.804 607.828 221.684 607.828 222.751V270.644V270.661Z" fill="black" style="fill:black;fill:black;fill-opacity:1;"/>
<path d="M730.331 195.258H759.644C760.326 195.258 760.94 195.596 761.315 196.172L817.025 283.494C826.148 298.205 838.221 322.634 838.221 322.634H838.903C838.903 322.634 837.078 296.394 837.078 279.651V197.221C837.078 196.138 837.965 195.274 839.039 195.274H864.959C866.05 195.274 866.92 196.155 866.92 197.221V361.623C866.92 362.706 866.033 363.57 864.959 363.57H835.646C834.964 363.57 834.35 363.231 833.992 362.656L778.521 275.791C769.176 260.859 757.103 236.43 757.103 236.43H756.642C756.642 236.43 758.228 262.67 758.228 279.414V361.606C758.228 362.689 757.342 363.553 756.267 363.553H730.348C729.256 363.553 728.387 362.672 728.387 361.606V197.204C728.387 196.121 729.273 195.258 730.348 195.258" fill="black" style="fill:black;fill:black;fill-opacity:1;"/>
<path d="M881.568 279.856C881.568 229.406 913.695 192.077 964.971 192.077C1016.25 192.077 1048.37 229.406 1048.37 279.856C1048.37 330.305 1016.25 367.398 964.971 367.398C913.695 367.398 881.568 330.068 881.568 279.856ZM1016.01 279.856C1016.01 244.795 998.684 217.877 965.193 217.877C931.702 217.877 913.695 244.795 913.695 279.856C913.695 314.917 931.463 340.937 965.193 340.937C998.922 340.937 1016.01 314.696 1016.01 279.856Z" fill="black" style="fill:black;fill:black;fill-opacity:1;"/>
<path d="M1055.78 279.856C1055.78 229.406 1087.9 192.077 1139.18 192.077C1190.45 192.077 1222.58 229.406 1222.58 279.856C1222.58 330.305 1190.45 367.398 1139.18 367.398C1087.9 367.398 1055.78 330.068 1055.78 279.856ZM1190.22 279.856C1190.22 244.795 1172.89 217.877 1139.4 217.877C1105.91 217.877 1087.9 244.795 1087.9 279.856C1087.9 314.917 1105.67 340.937 1139.4 340.937C1173.13 340.937 1190.22 314.696 1190.22 279.856Z" fill="black" style="fill:black;fill:black;fill-opacity:1;"/>
<path d="M1239.43 195.258H1268.74C1269.42 195.258 1270.04 195.596 1270.39 196.172L1326.1 283.494C1335.23 298.205 1347.3 322.634 1347.3 322.634H1347.98C1347.98 322.634 1346.16 296.394 1346.16 279.651V197.221C1346.16 196.138 1347.04 195.274 1348.12 195.274H1374.04C1375.13 195.274 1376 196.155 1376 197.221V361.623C1376 362.706 1375.11 363.57 1374.04 363.57H1344.73C1344.04 363.57 1343.43 363.231 1343.07 362.656L1287.6 275.791C1278.26 260.859 1266.18 236.43 1266.18 236.43H1265.72C1265.72 236.43 1267.31 262.67 1267.31 279.414V361.606C1267.31 362.689 1266.42 363.553 1265.35 363.553H1239.43C1238.34 363.553 1237.47 362.672 1237.47 361.606V197.204C1237.47 196.121 1238.35 195.258 1239.43 195.258Z" fill="black" style="fill:black;fill:black;fill-opacity:1;"/>
<path d="M430.449 500.227H425.094C423.901 500.227 422.844 500.989 422.451 502.106C415.511 521.626 401.972 532.359 384.322 532.359C369.726 532.359 358.676 525.96 350.576 512.772C342.544 499.55 338.469 482.112 338.469 460.968C338.469 441.448 341.862 426.872 348.547 417.611C355.112 408.537 364.235 403.932 375.66 403.932C393.36 403.932 406.729 414.683 416.534 436.809C416.995 437.842 418.001 438.502 419.109 438.502H427.158C428.096 438.502 428.965 438.045 429.494 437.283C430.023 436.539 430.125 435.574 429.801 434.727C426.356 425.771 423.474 414.31 421.207 400.648C421.087 399.903 420.661 399.226 420.047 398.786C419.433 398.346 418.7 398.193 417.967 398.312C415.306 398.786 412.868 399.023 410.719 399.023C406.405 399.023 401 398.21 394.69 396.619C387.937 394.909 381.765 394.046 376.342 394.046C356.305 394.046 339.782 401.054 327.214 414.869C314.664 428.548 308.303 446.358 308.303 467.79C308.303 489.223 314.851 507.761 327.777 521.931C340.686 535.965 357.704 543.075 378.354 543.075C394.11 543.075 406.678 539.029 415.75 531.039C424.123 523.573 429.989 514.397 433.211 503.765C433.467 502.919 433.297 502.038 432.768 501.327C432.239 500.616 431.387 500.193 430.483 500.193" fill="black" style="fill:black;fill:black;fill-opacity:1;"/>
<path d="M529.694 438.454C529.694 428.686 521.679 422.371 509.265 422.371C493.782 422.371 481.845 432.376 473.762 452.133L478.298 429.244C478.401 428.703 478.366 428.144 478.162 427.653C477.275 425.435 475.74 423.81 473.626 422.828C472.824 422.456 471.852 422.523 471.051 423.014C461.792 428.686 451.066 432.715 439.18 435C437.85 435.254 436.895 436.405 436.895 437.726V440.35C436.895 441.129 437.219 441.874 437.799 442.399C438.379 442.923 439.163 443.194 439.948 443.143C443.87 442.839 446.598 443.431 448.269 444.989C449.821 446.411 450.571 448.713 450.571 452.048V524.388C450.571 528.18 446.786 530.652 439.334 531.718C437.918 531.921 436.878 533.089 436.878 534.494V537.034C436.878 537.813 437.185 538.524 437.748 539.048C438.311 539.573 439.044 539.844 439.828 539.81C456.284 539.065 473.251 539.065 490.269 539.81C490.32 539.81 490.354 539.81 490.405 539.81C491.139 539.81 491.821 539.54 492.349 539.032C492.912 538.507 493.219 537.779 493.219 537.017V534.461C493.219 533.056 492.196 531.904 490.798 531.684C485.051 530.821 478.213 528.857 478.213 524.354V461.918C478.213 461.918 478.213 461.766 478.23 461.681C478.912 457.754 480.839 453.182 483.977 448.154C487.182 443.076 491.122 440.604 496.05 440.604C498.966 440.604 502.24 442.229 506.059 445.581C510.135 449.17 513.989 450.982 517.519 450.982C524.698 450.982 529.728 445.818 529.728 438.42" fill="black" style="fill:black;fill:black;fill-opacity:1;"/>
<path d="M577.848 422.928C563.354 422.928 550.701 428.328 540.197 438.977C529.846 449.575 524.611 464.303 524.611 482.756C524.611 501.209 529.931 515.887 540.435 526.536C550.974 537.117 564.343 542.466 580.201 542.466C598.925 542.365 612.362 534.78 620.155 519.95C620.615 519.07 620.598 518.02 620.07 517.157C619.558 516.31 618.654 515.802 617.665 515.802H614.459C613.402 515.802 612.43 516.395 611.953 517.36C606.615 527.907 597.85 533.257 585.88 533.257C575.41 533.257 567.6 528.872 562.023 519.849C556.737 511.316 553.941 499.94 553.702 486.041C553.702 485.736 553.804 485.465 554.026 485.245C554.248 485.025 554.52 484.906 554.827 484.906H611.901C620.888 484.906 624.554 480.403 624.554 469.365C624.554 455.788 620.053 444.547 611.168 435.963C602.216 427.312 591.012 422.911 577.865 422.911M560.045 443.582C564.257 435.642 570.021 431.765 577.643 431.765C591.03 431.765 597.953 446.341 598.26 475.104C598.26 475.409 598.14 475.68 597.936 475.9C597.731 476.12 597.441 476.238 597.151 476.238H554.844C554.537 476.238 554.265 476.12 554.043 475.9C553.838 475.68 553.719 475.409 553.719 475.104C553.907 461.645 556.038 451.047 560.062 443.565" fill="black" style="fill:black;fill:black;fill-opacity:1;"/>
<path d="M735.889 529.498C727.806 528.771 724.515 524.911 724.515 516.209V459.004C724.515 445.579 721.735 436.116 716.261 430.902C710.924 425.603 701.937 422.928 689.523 422.928C673.955 422.928 661.438 425.823 651.275 431.765C641.027 437.639 635.826 444.987 635.826 453.587C635.826 461.628 640.072 465.692 648.478 465.692C653.713 465.692 657.448 463.728 659.562 459.851C661.677 456.211 662.888 452.25 663.229 447.78C663.553 443.7 665.121 439.976 668.037 436.437C670.868 433.001 675.336 431.342 681.73 431.342C688.125 431.342 692.149 433.187 694.11 436.962C696.14 440.771 697.129 447.831 697.129 458.547V467.368C697.129 467.875 696.754 468.333 696.242 468.451C671.277 473.97 653.662 480.132 643.874 486.786C633.813 493.642 628.715 502.462 628.715 512.992C628.715 523.522 632.006 530.667 638.52 535.542C645.068 540.333 652.52 542.67 661.268 542.67C670.015 542.67 678.388 540.316 684.919 535.661C691.007 531.208 695.611 526.434 698.629 521.474L697.623 536.304C697.589 536.778 697.674 537.252 697.862 537.658C698.885 539.927 700.539 541.535 702.79 542.399C703.302 542.602 703.881 542.636 704.461 542.5C714.352 540.113 724.89 538.606 735.786 538.014C737.287 537.929 738.463 536.71 738.463 535.237V532.292C738.463 530.853 737.355 529.634 735.923 529.515M697.146 477.525V509.708C697.146 509.877 697.112 510.047 697.043 510.199C695.133 514.397 691.962 518.714 687.613 523.031C683.197 527.416 678.166 529.634 672.641 529.634C663.092 529.634 656.919 522.337 656.919 511.045C656.919 494.709 669.981 483.078 695.747 476.476C695.833 476.459 695.935 476.442 696.02 476.442C696.259 476.442 696.498 476.526 696.702 476.679C696.975 476.899 697.146 477.22 697.146 477.559" fill="black" style="fill:black;fill:black;fill-opacity:1;"/>
<path d="M798.353 424.909H776.373C775.759 424.909 775.265 424.418 775.265 423.808V396.907C775.265 395.367 774.003 394.114 772.451 394.114H767.83C766.466 394.114 765.306 395.079 765.067 396.433C763.277 406.066 760.224 413.295 755.995 417.917C751.886 422.301 746.088 424.587 738.261 424.892C736.726 424.959 735.516 426.178 735.516 427.685V431.545C735.516 433.085 736.778 434.338 738.329 434.338H746.736C747.35 434.338 747.844 434.829 747.844 435.439V509.471C747.844 530.108 758.349 541.468 777.396 541.468C777.584 541.468 777.788 541.468 777.976 541.468C787.508 541.468 795.028 538.877 800.331 533.748C800.877 533.223 801.184 532.495 801.184 531.716V528.906C801.184 527.856 800.604 526.908 799.666 526.434C798.746 525.943 797.637 526.028 796.785 526.604C793.476 528.889 789.844 530.04 785.973 530.04C783.177 530.074 780.892 529.278 779.204 527.636C776.595 525.08 775.265 520.407 775.265 513.771V435.439C775.265 434.829 775.759 434.338 776.373 434.338H798.353C799.905 434.338 801.167 433.085 801.167 431.545V427.719C801.167 426.178 799.905 424.926 798.353 424.926" fill="black" style="fill:black;fill:black;fill-opacity:1;"/>
<path d="M859.042 531.701C851.419 530.55 847.565 528.078 847.565 524.37V458.989C847.668 444.108 848.111 434.374 848.895 429.227C848.981 428.635 848.895 428.042 848.622 427.534C847.514 425.401 845.997 423.827 844.121 422.845C843.319 422.439 842.347 422.489 841.512 422.963C831.894 428.567 820.947 432.613 808.976 434.966C807.663 435.22 806.691 436.371 806.691 437.692V440.35C806.691 441.112 807.015 441.857 807.578 442.381C808.14 442.906 808.908 443.177 809.675 443.126C813.239 442.906 815.899 443.6 817.587 445.158C819.139 446.614 819.941 448.916 819.941 451.98V524.32C819.941 528.112 816.155 530.584 808.703 531.65C807.288 531.853 806.247 533.021 806.247 534.427V536.966C806.247 537.728 806.554 538.456 807.117 538.981C807.646 539.488 808.328 539.759 809.061 539.759C809.112 539.759 809.146 539.759 809.197 539.759C825.602 539.014 842.194 539.014 858.53 539.759C859.297 539.776 860.048 539.522 860.61 538.998C861.173 538.473 861.48 537.745 861.48 536.983V534.427C861.48 533.038 860.457 531.87 859.059 531.65" fill="black" style="fill:black;fill:black;fill-opacity:1;"/>
<path d="M833.021 412.263C837.148 412.263 840.609 410.841 843.303 408.03C846.134 405.237 847.55 401.8 847.55 397.822C847.55 393.843 846.117 390.424 843.303 387.63C840.592 384.82 837.131 383.398 833.004 383.398C828.877 383.398 825.552 384.82 822.704 387.63C819.959 390.474 818.578 393.894 818.578 397.822C818.578 401.749 819.976 405.186 822.721 408.03C825.535 410.841 828.997 412.263 833.004 412.263" fill="black" style="fill:black;fill:black;fill-opacity:1;"/>
<path d="M974.536 433.324C975.952 433.154 977.009 431.952 977.009 430.547V427.703C977.009 426.163 975.747 424.91 974.195 424.91H930.968C929.416 424.91 928.154 426.163 928.154 427.703V430.429C928.154 431.902 929.314 433.138 930.797 433.222L935.81 433.544C940.449 434.035 943.586 435.423 945.104 437.708C946.485 439.757 946.622 442.635 945.53 446.258L926.415 507.339C926.244 507.898 925.75 508.118 925.357 508.118C924.982 508.169 924.471 507.932 924.283 507.373L903.206 445.801C901.603 441.027 901.45 437.607 902.729 435.626C903.513 434.424 904.844 433.747 906.805 433.544L910.232 433.256C911.698 433.137 912.824 431.936 912.824 430.463V427.703C912.824 426.163 911.562 424.91 909.993 424.91H861.087C859.536 424.91 858.257 426.163 858.257 427.703V430.496C858.257 431.935 859.348 433.137 860.797 433.273L863.372 433.527C870.091 434.204 873.245 437.319 876.332 446.326L909.124 538.675C909.516 539.793 910.59 540.538 911.784 540.538H922.97C924.198 540.538 925.272 539.759 925.664 538.591L955.37 446.749C958.03 438.91 963.861 434.458 972.695 433.51L974.536 433.29V433.324Z" fill="black" style="fill:black;fill:black;fill-opacity:1;"/>
<path d="M997.183 484.906H1054.26C1063.24 484.906 1066.89 480.403 1066.89 469.365C1066.89 455.788 1062.39 444.546 1053.51 435.963C1044.55 427.295 1033.35 422.911 1020.2 422.911C1005.73 422.911 993.056 428.311 982.552 438.96C972.201 449.574 966.966 464.286 966.966 482.739C966.966 501.192 972.286 515.87 982.79 526.519C993.329 537.083 1006.71 542.449 1022.56 542.449C1041.28 542.348 1054.72 534.763 1062.51 519.933C1062.97 519.053 1062.94 518.003 1062.42 517.157C1061.91 516.31 1061.01 515.802 1060.02 515.802H1056.81C1055.76 515.802 1054.79 516.395 1054.31 517.36C1048.97 527.907 1040.21 533.257 1028.23 533.257C1017.76 533.257 1009.95 528.872 1004.38 519.849C999.11 511.316 996.313 499.956 996.074 486.04C996.074 485.753 996.176 485.465 996.398 485.245C996.62 485.025 996.893 484.906 997.2 484.906M996.074 475.121C996.262 461.662 998.393 451.064 1002.42 443.582C1006.63 435.642 1012.39 431.765 1020.02 431.765C1033.4 431.765 1040.32 446.341 1040.61 475.104C1040.61 475.409 1040.5 475.68 1040.29 475.9C1040.07 476.12 1039.8 476.238 1039.49 476.238H997.183C996.876 476.238 996.603 476.12 996.381 475.9C996.176 475.68 996.057 475.409 996.057 475.104" fill="black" style="fill:black;fill:black;fill-opacity:1;"/>
</svg>
